<!-- Generator: Adobe Illustrator 21.1.0, SVG Export Plug-In  -->
<svg version="1.1"
	 xmlns="http://www.w3.org/2000/svg" xmlns:xlink="http://www.w3.org/1999/xlink" xmlns:a="http://ns.adobe.com/AdobeSVGViewerExtensions/3.0/"
	 x="0px" y="0px" width="23.559px" height="31.647px" viewBox="0 0 23.559 31.647"
	 style="overflow:scroll;enable-background:new 0 0 23.559 31.647;" xml:space="preserve">
<style type="text/css">
	.st0{fill:#92A9B7;}
</style>
<defs>
</defs>
<path id="Twitter_1_" class="st0" d="M19.607,23.734h-7.809c-1.086,0-2.009-0.38-2.767-1.143c-0.762-0.764-1.139-1.687-1.139-2.778
	v-2.779H19.02c1.003,0,1.868-0.361,2.586-1.077c0.718-0.722,1.078-1.585,1.078-2.59c0-1.008-0.361-1.87-1.08-2.59
	c-0.72-0.718-1.587-1.078-2.595-1.078H7.893V3.957c0-1.086-0.387-2.017-1.157-2.792C5.97,0.389,5.044,0,3.967,0
	C2.861,0,1.919,0.384,1.153,1.143C0.384,1.904,0,2.843,0,3.961v15.855c0,3.261,1.153,6.047,3.459,8.359
	c2.308,2.316,5.091,3.472,8.344,3.472h7.807c1.084,0,2.014-0.389,2.788-1.166c0.774-0.773,1.161-1.705,1.161-2.79
	c0-1.086-0.386-2.016-1.161-2.792C21.624,24.124,20.693,23.734,19.607,23.734z"/>
</svg>