<!-- Generator: Adobe Illustrator 21.1.0, SVG Export Plug-In  -->
<svg version="1.1"
	 xmlns="http://www.w3.org/2000/svg" xmlns:xlink="http://www.w3.org/1999/xlink" xmlns:a="http://ns.adobe.com/AdobeSVGViewerExtensions/3.0/"
	 x="0px" y="0px" width="31.647px" height="31.647px" viewBox="0 0 31.647 31.647"
	 style="overflow:scroll;enable-background:new 0 0 31.647 31.647;" xml:space="preserve">
<style type="text/css">
	.st0{fill:#92A9B7;}
</style>
<defs>
</defs>
<path id="Facebook__x28_alt_x29__1_" class="st0" d="M31.647,5.275C31.647,2.503,29.145,0,26.372,0H5.275C2.502,0,0,2.503,0,5.275
	v21.097c0,2.771,2.502,5.275,5.275,5.275h10.548V19.691h-3.868v-5.274h3.868v-2.055c0-3.544,2.662-6.736,5.934-6.736h4.263V10.9
	h-4.263c-0.466,0-1.011,0.566-1.011,1.415v2.101h5.274v5.274h-5.274v11.955h5.626c2.772,0,5.274-2.503,5.274-5.275V5.275z"/>
</svg>