<!-- Generator: Adobe Illustrator 21.1.0, SVG Export Plug-In  -->
<svg version="1.1"
	 xmlns="http://www.w3.org/2000/svg" xmlns:xlink="http://www.w3.org/1999/xlink" xmlns:a="http://ns.adobe.com/AdobeSVGViewerExtensions/3.0/"
	 x="0px" y="0px" width="29.152px" height="31.647px" viewBox="0 0 29.152 31.647"
	 style="overflow:scroll;enable-background:new 0 0 29.152 31.647;" xml:space="preserve">
<style type="text/css">
	.st0{fill:#92A9B7;}
</style>
<defs>
</defs>
<path class="st0" d="M20.746,0h-8.564c-2.244,0-5.071,0.331-7.44,2.282C2.952,3.82,2.082,5.936,2.082,7.847
	c0,3.239,2.494,6.521,6.901,6.521c0.415,0,0.871-0.042,1.332-0.083c-0.208,0.497-0.418,0.912-0.418,1.619
	c0,1.288,0.665,2.076,1.247,2.824c-1.869,0.124-5.362,0.331-7.94,1.909C0.75,22.094,0,24.21,0,25.706
	c0,3.073,2.911,5.941,8.94,5.941c7.151,0,10.935-3.945,10.935-7.852c0-2.863-1.663-4.277-3.492-5.814l-1.497-1.162
	c-0.455-0.375-1.079-0.872-1.079-1.786c0-0.913,0.624-1.496,1.163-2.035c1.745-1.37,3.492-2.824,3.492-5.897
	c0-3.157-1.997-4.819-2.952-5.607h2.579L20.746,0z M17.09,25.415c0,2.575-2.121,4.484-6.113,4.484c-4.448,0-7.317-2.118-7.317-5.065
	c0-2.951,2.661-3.945,3.575-4.277c1.747-0.582,3.992-0.665,4.365-0.665c0.416,0,0.624,0,0.958,0.041
	C15.719,22.175,17.09,23.298,17.09,25.415z M13.764,12.043c-0.665,0.663-1.789,1.162-2.829,1.162c-3.574,0-5.195-4.611-5.195-7.392
	c0-1.08,0.208-2.2,0.913-3.073c0.665-0.831,1.829-1.371,2.911-1.371c3.45,0,5.239,4.652,5.239,7.641
	C14.803,9.759,14.719,11.086,13.764,12.043z M29.152,12.438c0,0.142-0.011,0.264-0.034,0.365c-0.022,0.101-0.052,0.185-0.09,0.252
	s-0.082,0.116-0.135,0.146c-0.053,0.03-0.109,0.045-0.168,0.045h-3.68v4.084c0,0.06-0.015,0.11-0.045,0.151s-0.077,0.077-0.14,0.106
	c-0.064,0.03-0.148,0.054-0.252,0.073c-0.105,0.019-0.236,0.028-0.392,0.028c-0.15,0-0.279-0.009-0.387-0.028
	c-0.109-0.019-0.194-0.043-0.258-0.073c-0.064-0.03-0.111-0.065-0.14-0.106c-0.03-0.041-0.045-0.092-0.045-0.151v-4.084h-3.68
	c-0.067,0-0.125-0.015-0.174-0.045c-0.049-0.03-0.092-0.079-0.129-0.146c-0.038-0.067-0.067-0.151-0.09-0.252
	c-0.022-0.101-0.034-0.223-0.034-0.365c0-0.135,0.011-0.252,0.034-0.353c0.023-0.101,0.052-0.185,0.09-0.253
	c0.037-0.067,0.08-0.116,0.129-0.146s0.103-0.045,0.163-0.045h3.691V7.558c0-0.06,0.015-0.114,0.045-0.163
	c0.03-0.048,0.077-0.09,0.14-0.123c0.064-0.034,0.149-0.06,0.258-0.079c0.109-0.019,0.238-0.028,0.387-0.028
	c0.157,0,0.288,0.01,0.392,0.028c0.105,0.019,0.189,0.045,0.252,0.079c0.064,0.034,0.111,0.075,0.14,0.123
	c0.03,0.049,0.045,0.103,0.045,0.163v4.084h3.691c0.06,0,0.114,0.015,0.163,0.045c0.048,0.03,0.093,0.078,0.135,0.146
	c0.041,0.068,0.071,0.152,0.09,0.253C29.143,12.186,29.152,12.304,29.152,12.438z"/>
</svg>